<svg xmlns="http://www.w3.org/2000/svg" width="20" height="20" viewBox="0 0 20 20" fill="none">
<path d="M8.57797 1.99387C8.6813 2.0972 8.74964 2.20554 8.79297 2.28554C8.8588 2.40637 8.90797 2.53554 8.94713 2.6522C9.02213 2.87554 9.0988 3.17304 9.1863 3.5122L12.253 15.3789L13.593 10.3305L13.6038 10.2889L13.6063 10.2797C13.643 10.138 13.7038 9.90137 13.8421 9.7022C13.9679 9.51896 14.1402 9.37254 14.3413 9.27804C14.5005 9.20304 14.6488 9.18054 14.758 9.1722C14.8455 9.16387 14.9413 9.1647 15.0146 9.1647H17.5013C17.7223 9.1647 17.9343 9.2525 18.0906 9.40878C18.2468 9.56506 18.3346 9.77702 18.3346 9.99804C18.3346 10.2191 18.2468 10.431 18.0906 10.5873C17.9343 10.7436 17.7223 10.8314 17.5013 10.8314H15.1846L13.6813 16.4939C13.5913 16.8322 13.513 17.1289 13.4363 17.3522C13.3939 17.4784 13.3415 17.601 13.2796 17.7189C13.1895 17.8869 13.0596 18.0302 12.9013 18.1364C12.7052 18.264 12.4761 18.3315 12.2422 18.3306C12.0083 18.3297 11.7797 18.2604 11.5846 18.1314C11.4271 18.0239 11.2984 17.8794 11.2096 17.7105C11.1485 17.5923 11.097 17.4694 11.0555 17.343C10.9805 17.1197 10.9038 16.8222 10.8163 16.483L7.74964 4.61637L6.40964 9.66387L6.3988 9.70554L6.3963 9.7147C6.35964 9.85637 6.29797 10.093 6.16047 10.2922C6.03474 10.4755 5.86244 10.6219 5.6613 10.7164C5.50214 10.7914 5.3538 10.8139 5.24464 10.8222C5.15714 10.8305 5.0613 10.8297 4.98797 10.8297H2.5013C2.28029 10.8297 2.06833 10.7419 1.91205 10.5856C1.75577 10.4293 1.66797 10.2174 1.66797 9.99637C1.66797 9.77536 1.75577 9.5634 1.91205 9.40711C2.06833 9.25083 2.28029 9.16304 2.5013 9.16304H4.81797L6.3213 3.4997C6.4113 3.1622 6.48964 2.8647 6.5663 2.64304C6.6063 2.52637 6.6563 2.3972 6.72297 2.27637C6.81297 2.10808 6.94287 1.96444 7.1013 1.85804C7.32673 1.71112 7.59512 1.64453 7.86309 1.66903C8.13105 1.69353 8.38291 1.80852 8.57797 1.99387Z" fill="#282828"/>
</svg>