<svg xmlns="http://www.w3.org/2000/svg" width="20" height="20" viewBox="0 0 20 20" fill="none">
<path d="M10.0013 5.83333V17.5M10.0013 5.83333C10.0013 4.94928 9.65011 4.10143 9.02499 3.47631C8.39987 2.85119 7.55202 2.5 6.66797 2.5H2.5013C2.28029 2.5 2.06833 2.5878 1.91205 2.74408C1.75577 2.90036 1.66797 3.11232 1.66797 3.33333V14.1667C1.66797 14.3877 1.75577 14.5996 1.91205 14.7559C2.06833 14.9122 2.28029 15 2.5013 15H7.5013C8.16434 15 8.80023 15.2634 9.26907 15.7322C9.73791 16.2011 10.0013 16.837 10.0013 17.5M10.0013 5.83333C10.0013 4.94928 10.3525 4.10143 10.9776 3.47631C11.6027 2.85119 12.4506 2.5 13.3346 2.5H17.5013C17.7223 2.5 17.9343 2.5878 18.0906 2.74408C18.2468 2.90036 18.3346 3.11232 18.3346 3.33333V14.1667C18.3346 14.3877 18.2468 14.5996 18.0906 14.7559C17.9343 14.9122 17.7223 15 17.5013 15H12.5013C11.8383 15 11.2024 15.2634 10.7335 15.7322C10.2647 16.2011 10.0013 16.837 10.0013 17.5" stroke="#282828" stroke-width="1.6" stroke-linecap="round" stroke-linejoin="round"/>
</svg>