<svg xmlns="http://www.w3.org/2000/svg" width="20" height="20" viewBox="0 0 20 20" fill="none">
<path d="M7.61964 17.9888C6.24137 17.5771 4.99311 16.8158 3.99631 15.7788C4.317 15.3984 4.51692 14.931 4.57047 14.4364C4.62402 13.9417 4.52877 13.4424 4.29691 13.0022C4.06505 12.562 3.70712 12.201 3.26893 11.9654C2.83073 11.7298 2.33221 11.6303 1.83714 11.6796C1.7241 11.1272 1.66742 10.5647 1.66797 10.0008C1.66797 9.13 1.80131 8.29 2.04964 7.50083H2.08464C2.50954 7.50097 2.92746 7.39281 3.29895 7.18656C3.67043 6.98032 3.98322 6.68279 4.20778 6.32208C4.43234 5.96137 4.56125 5.54938 4.58236 5.125C4.60346 4.70063 4.51605 4.27788 4.32839 3.89667C5.30561 2.98743 6.48695 2.32625 7.77297 1.96875C7.9823 2.37975 8.30124 2.72483 8.69452 2.96581C9.08779 3.20679 9.54007 3.33428 10.0013 3.33417C10.4625 3.33428 10.9148 3.20679 11.3081 2.96581C11.7014 2.72483 12.0203 2.37975 12.2296 1.96875C13.5157 2.32625 14.697 2.98743 15.6742 3.89667C15.4852 4.28055 15.3979 4.70652 15.4206 5.13381C15.4433 5.56111 15.5753 5.97542 15.804 6.33709C16.0326 6.69877 16.3503 6.99569 16.7266 7.19945C17.1028 7.40321 17.5251 7.50698 17.953 7.50083C18.2066 8.3099 18.3353 9.15294 18.3346 10.0008C18.3346 10.5758 18.2763 11.1375 18.1655 11.68C17.6704 11.6307 17.1719 11.7302 16.7337 11.9658C16.2955 12.2014 15.9376 12.5624 15.7057 13.0026C15.4738 13.4428 15.3786 13.9421 15.4321 14.4368C15.4857 14.9314 15.6856 15.3988 16.0063 15.7792C15.0095 16.816 13.7612 17.5773 12.383 17.9888C12.2211 17.4843 11.9033 17.0442 11.4752 16.7321C11.0472 16.4199 10.5311 16.2516 10.0013 16.2516C9.47152 16.2516 8.95541 16.4199 8.52738 16.7321C8.09934 17.0442 7.78149 17.4843 7.61964 17.9888Z" stroke="#282828" stroke-width="1.6" stroke-linejoin="round"/>
<path d="M10.0026 12.9193C10.3856 12.9193 10.7649 12.8438 11.1188 12.6973C11.4726 12.5507 11.7942 12.3358 12.065 12.065C12.3358 11.7942 12.5507 11.4726 12.6973 11.1188C12.8438 10.7649 12.9193 10.3856 12.9193 10.0026C12.9193 9.61958 12.8438 9.24031 12.6973 8.88644C12.5507 8.53258 12.3358 8.21105 12.065 7.94021C11.7942 7.66937 11.4726 7.45453 11.1188 7.30796C10.7649 7.16138 10.3856 7.08594 10.0026 7.08594C9.22906 7.08594 8.48719 7.39323 7.94021 7.94021C7.39323 8.48719 7.08594 9.22906 7.08594 10.0026C7.08594 10.7762 7.39323 11.518 7.94021 12.065C8.48719 12.612 9.22906 12.9193 10.0026 12.9193Z" stroke="#282828" stroke-width="1.6" stroke-linejoin="round"/>
</svg>