<svg width="630" height="630" viewBox="0 0 630 630" fill="none" xmlns="http://www.w3.org/2000/svg">
<path d="M351.232 220.251L349.035 223.646C347.198 226.487 350.299 229.926 353.336 228.416L356.123 227.032C356.377 226.905 356.614 226.748 356.826 226.561C359.587 224.129 364.538 219.396 364.538 217.861C364.538 216.337 366.98 214.084 368.366 213.015C368.491 212.919 368.61 212.814 368.726 212.707C370.391 211.163 371.49 211.786 372.093 212.741C372.518 213.413 372.356 214.258 372.042 214.987C370.954 217.519 372.349 216.523 370.562 221.852C369.137 226.098 371.291 226.475 372.964 226.043C373.374 225.936 373.787 225.85 374.209 225.812C378.653 225.411 389.685 221.286 395.25 219.026C395.525 218.915 395.81 218.841 396.104 218.804L403.125 217.932C403.5 217.885 403.863 217.776 404.202 217.608L415.257 212.115C415.577 211.956 415.921 211.849 416.276 211.799L422.469 210.919C422.667 210.891 422.86 210.847 423.049 210.782C430.266 208.296 440.56 201.189 444.854 197.907C448.87 193.916 457.906 185.601 461.921 181.943L472.965 171.965C476.827 168.894 485.952 158.809 490.514 153.605C490.859 153.211 491.102 152.744 491.23 152.238L492.955 145.379C493.014 145.143 493.099 144.917 493.208 144.7L496.953 137.255C497.024 137.115 497.084 136.971 497.134 136.822C498.61 132.347 500.183 125.397 500.925 121.817C501.026 121.331 501.231 120.874 501.531 120.477L503.746 117.542C503.972 117.242 504.145 116.909 504.258 116.551C506.325 110.016 510.334 96.8031 511.115 92.1456C511.918 87.3564 512.119 81.503 512.119 79.1749C511.452 71.8802 509.814 63.6213 508.704 58.7468C508.365 57.2603 507.028 56.2268 505.496 56.2268H497.06C477.446 57.0065 458.791 61.6577 451.386 64.0428C451.045 64.1527 450.69 64.2213 450.378 64.3983C449.098 65.1263 446.288 67.7725 444.854 69.1975C435.216 79.574 419.421 97.4669 412.728 105.116C410.72 107.777 405.901 114.495 402.688 120.082C399.475 125.67 381.94 154.338 373.573 167.974C370.227 173.296 362.931 185.535 360.522 191.92C358.165 198.167 353.693 212.564 351.62 219.413C351.53 219.711 351.401 219.989 351.232 220.251Z" fill="black"/>
<path d="M425.255 287.292L419.462 293.768C418.452 294.897 418.401 296.543 418.941 297.956C419.435 299.249 419.576 300.441 419.503 301.492C419.346 303.755 419.856 306.711 421.896 307.725L423.771 308.656L433.811 312.647C438.399 314.927 446.991 318.594 451.269 320.375C451.676 320.544 452.109 320.629 452.549 320.629H462.595C462.815 320.629 463.026 320.649 463.241 320.692C467.815 321.614 486.358 325.548 495.649 327.527C495.924 327.585 496.183 327.677 496.435 327.802L505.883 332.497C506.024 332.567 506.169 332.627 506.32 332.675C512.341 334.573 521.216 333.612 526.174 334.598C529.801 335.318 532.608 336.636 533.858 337.374C534.093 337.513 534.333 337.637 534.591 337.726C539.48 339.416 550.26 342.359 557.297 341.582C564.153 340.825 572.756 338.811 576.765 337.754C577.171 337.647 577.59 337.615 578.008 337.657C581.233 337.979 587.171 338.337 589.423 337.591C591.756 336.818 596.16 333.488 598.26 331.768C598.393 331.659 598.535 331.559 598.683 331.472C608.633 325.633 617.557 326.601 620.546 324.62C622.764 323.151 624.584 321.005 625.382 319.895C625.507 319.721 625.607 319.534 625.688 319.336C629.391 310.22 629.871 295.837 629.627 288.771C629.602 288.073 629.351 287.407 628.89 286.881C622.221 279.267 609.294 272.989 603.479 270.742C597.171 267.607 585.186 264.857 579.684 263.814C579.481 263.776 579.285 263.758 579.078 263.756C570.365 263.683 555.467 260.538 548.654 258.866C548.389 258.801 548.132 258.769 547.859 258.77C524.662 258.838 480.979 264.761 477.985 265.753C475.816 266.472 470.772 269.939 467.834 272.08C467.252 272.504 466.553 272.731 465.832 272.772C462.597 272.956 456.262 273.907 449.874 276.728C442.975 279.776 431.868 284.277 426.506 286.416C426.025 286.608 425.6 286.906 425.255 287.292Z" fill="black"/>
<path d="M397.668 397.456C399.721 394.055 402.406 386.068 403.983 380.899C404.416 379.48 405.722 378.498 407.212 378.498H420.759C423.071 378.498 429.882 382.173 433.386 384.233C433.669 384.4 433.973 384.518 434.283 384.629C437.358 385.736 442.069 390.378 444.461 393.024C444.724 393.315 445.033 393.56 445.376 393.751C453.908 398.511 459.277 404.825 460.917 407.433C464.027 412.841 473.029 420.554 477.549 424.059C477.837 424.282 478.086 424.547 478.291 424.847C483.075 431.833 491.161 440.462 494.86 444.158C494.99 444.288 495.104 444.421 495.209 444.572C499.047 450.067 502.554 460.725 503.965 465.849C504.047 466.149 504.168 466.435 504.333 466.699C506.762 470.576 511.55 476.325 513.907 479.02C514.053 479.187 514.181 479.362 514.289 479.556C517.395 485.115 521.889 497.491 523.966 503.62C524.099 504.013 524.307 504.375 524.558 504.705C528.138 509.421 529.128 517.161 529.184 520.848C529.187 521.066 529.165 521.282 529.122 521.497C527.582 529.217 525.934 539.861 525.233 544.687C525.191 544.976 525.112 545.258 524.995 545.525C522.804 550.512 519.971 555.278 518.507 557.538C518.268 557.907 517.956 558.222 517.578 558.448C512.987 561.197 507.082 561.395 504.365 561.117C504.18 561.098 503.998 561.059 503.82 561.005C493.888 557.969 485.003 551.099 484.008 550.11C483.205 549.312 470.957 537.805 464.933 532.151C462.524 529.756 457.906 526.497 455.898 525.167C452.761 522.829 428.958 497.48 416.62 484.209C416.05 483.596 415.752 482.796 415.694 481.962C415.454 478.496 414.327 475.466 413.732 474.282L404.864 454.697C404.752 454.451 404.671 454.19 404.621 453.925C403.183 446.303 401.146 442.237 400.026 440.767C399.81 440.482 399.508 440.284 399.241 440.046C397.531 438.516 394.409 432.847 392.813 429.709C392.703 429.493 392.619 429.265 392.558 429.03C391.047 423.22 388.363 417.579 386.934 414.97C386.733 414.601 386.594 414.205 386.536 413.79C385.542 406.631 384.285 393.464 386.625 393.464C388.899 393.464 389.563 395.835 389.631 397.22C389.638 397.377 389.648 397.539 389.673 397.695C390.734 404.393 394.691 402.386 397.668 397.456Z" fill="black"/>
<path d="M297.426 454.624C295.821 456.785 294.098 457 292.558 456.338C290.174 455.312 287.357 455.338 286.863 457.875C285.731 463.682 284.767 472.146 284.32 476.934C284.229 478.955 284.549 482.565 284.799 484.838C284.877 485.541 284.737 486.252 284.389 486.869L282.953 489.413C282.807 489.672 282.696 489.947 282.631 490.237C281.547 495.074 278.55 514.823 277.144 524.391C274.71 556.133 280.08 571.302 280.909 575.32C281.554 578.452 284.05 584.438 285.309 587.248C285.374 587.393 285.428 587.536 285.469 587.689C287.114 593.827 285.636 606.458 291.337 612.611C297.109 618.839 311.986 624.477 313.955 625.56C315.923 626.643 332.902 630.383 339.994 629.703C347.085 629.023 349.277 625.139 350.283 625.184C351.089 625.22 356.374 616.828 358.916 612.628C362.495 604.825 365.267 591.014 366.206 585.083C366.349 581.905 364.877 569.763 364.123 564.089C362.923 557.365 361.358 543.21 360.587 535.64C360.485 534.641 359.914 533.746 359.318 532.936C355.742 528.073 352.154 511.954 350.694 503.772C350.111 499.031 340.426 476.689 335.47 465.693C335.339 465.403 335.256 465.109 335.208 464.796C333.855 455.972 328.171 442.621 325.453 436.959C323.546 433.481 319.955 431.615 317.699 430.88C317.033 430.663 316.307 430.733 315.722 431.117C310.551 434.505 301.519 447.944 297.426 454.624Z" fill="black"/>
<path d="M77.0743 509.332C73.1903 513.746 64.4491 528.943 60.0923 536.839C59.7996 537.37 59.6566 537.973 59.7007 538.576C60.088 543.874 61.6558 545.857 63.0076 546.377C63.8335 546.695 64.8255 546.663 65.7108 546.679C69.6383 546.749 79.3073 544.025 84.253 542.45C86.7682 541.29 93.3173 539.392 96.6503 538.484C96.9223 538.41 97.1977 538.374 97.4795 538.362C102.726 538.138 116.699 534.941 123.198 533.327C129.53 532.019 138.125 530.879 142.251 530.398C142.704 530.345 143.136 530.204 143.533 529.981C152.306 525.054 167.194 518.318 174.184 515.286C174.544 515.13 174.869 514.914 175.156 514.647C184.354 506.098 196.758 499.753 202.359 497.41C202.69 497.272 202.997 497.088 203.266 496.852C208.792 491.987 215.23 483.208 217.811 479.342C222.877 472.862 228.532 451.752 230.726 442.006C235.529 426.324 237.861 403.248 238.494 392.741C238.532 392.116 238.387 391.495 238.081 390.948L233.261 382.326C233.086 382.014 232.865 381.729 232.589 381.499C228.509 378.1 221.714 376.788 218.222 376.5C217.818 376.467 217.414 376.517 217.033 376.655C211.695 378.587 201.221 385.169 196.493 388.328C184.598 396.982 169.015 410.647 162.71 416.397C153.275 425.338 134.07 441.558 125.415 448.744C125.26 448.872 125.131 449.002 125 449.155C121.636 453.085 107.638 467.56 100.933 474.436C97.1818 477.857 83.814 498.633 77.438 508.849C77.3282 509.025 77.2114 509.177 77.0743 509.332Z" fill="black"/>
<path d="M213.409 250.39C217.459 258.188 228.462 269.616 234.146 279.161C234.63 279.973 234.726 280.965 234.326 281.82C231.496 287.876 226.588 286.386 223.185 291.64C223.002 291.922 222.792 292.192 222.532 292.404C219.371 294.97 215.996 294.22 209.462 296.538C209.063 296.68 208.697 296.908 208.377 297.184C202.092 302.596 199.679 299.167 190.172 298.67C189.899 298.656 189.608 298.681 189.341 298.734C179.743 300.612 186.502 296.329 178.411 298.651C163.586 302.877 163.154 303.402 156.78 303.165C156.308 303.148 155.852 303.028 155.423 302.831C146.457 298.717 124.176 295.064 120.851 294.179C120.687 294.135 120.535 294.097 120.368 294.07C113.987 293.04 99.1946 291.728 93.4054 292.038C93.0507 292.057 92.6937 292.029 92.3472 291.951C84.5621 290.198 78.0972 291.426 65.1279 285.678L48.174 277.245C35.6612 269.612 27.4656 262.01 23.3654 254.276C23.2818 254.118 23.1929 253.976 23.0885 253.831C19.9494 249.471 11.5651 233.729 8.55181 222.83C8.43847 222.42 8.25493 222.04 8.00571 221.695C5.67375 218.463 2.64419 213.408 0.540204 209.747C-0.374273 208.156 0.210121 206.135 1.88508 205.372C12.9072 200.35 29.395 197.391 36.8363 196.49C43.8441 196.021 53.2155 196.811 57.5354 197.32C57.8952 197.362 58.2538 197.347 58.6102 197.282C65.0169 196.118 76.2755 196.188 81.7988 196.392C82.2193 196.407 82.6295 196.504 83.0139 196.675L86.5972 198.263C87.1261 198.497 87.7071 198.582 88.2859 198.565C93.5449 198.411 98.8872 201.343 101.186 203.042C101.326 203.145 101.467 203.241 101.624 203.315C104.83 204.832 112.857 204.404 117.031 203.943C117.394 203.903 117.756 203.917 118.112 203.993C123.014 205.04 132.619 207.436 137.28 208.623C137.516 208.683 137.733 208.764 137.951 208.874C148.405 214.141 174.34 226.075 187.332 229.682C187.535 229.739 187.721 229.807 187.908 229.904C194.693 233.386 205.996 245.079 211.908 248.786C212.542 249.183 213.064 249.728 213.409 250.39Z" fill="black"/>
<path d="M263.3 191.237C264.046 194.162 270.005 208.541 273.576 216.993C274.096 218.224 275.306 219.017 276.648 219.017H279.192C281.037 219.017 282.532 217.53 282.532 215.695V214.568C282.532 213.09 283.514 211.789 284.942 211.377L298.579 207.446C299.328 207.23 299.978 206.759 300.415 206.116L307.444 195.781C307.703 195.401 307.877 194.982 307.963 194.532C312.173 172.651 326.065 137.609 327.067 132.699C327.877 128.73 328.754 119.801 329.091 115.832C328.296 87.7505 318.963 54.1752 314.158 40.1552C313.992 39.6718 313.718 39.2496 313.356 38.8879C310.461 35.9997 305.05 30.2533 302.775 26.5369C300.378 22.6208 292.528 11.9423 288.754 6.89382C288.653 6.7578 288.544 6.63386 288.422 6.51489L282.971 1.17083C282.08 0.297398 280.773 -0.00748953 279.584 0.380852L278.994 0.573761C278.656 0.684276 278.341 0.844184 278.057 1.05761C266.008 10.1095 252.131 28.6488 249.13 39.4351C246.778 47.8903 242.337 66.3324 240.221 75.2986C240.089 75.8539 240.105 76.4331 240.264 76.9809L241.609 81.5941C241.885 82.5421 241.724 83.5633 241.168 84.3809L238.193 88.7546C238.062 88.9466 237.955 89.1359 237.881 89.3559C235.934 95.1709 234.979 124.856 235.972 129.722C236.782 133.691 241.708 144.605 244.069 149.566L252.167 164.448C255.541 172.055 262.491 188.062 263.3 191.237Z" fill="black"/>
</svg>
