<svg width="51" height="16" viewBox="0 0 51 16" fill="none" xmlns="http://www.w3.org/2000/svg">
<path d="M0.134003 14.0563C0.491343 14.0563 0.772107 14.0181 0.976301 13.9416C1.1805 13.8652 1.33364 13.7569 1.43574 13.6167C1.53784 13.4765 1.60165 13.3109 1.62717 13.1198C1.65269 12.9159 1.66546 12.6993 1.66546 12.47V3.86948C1.66546 3.64013 1.65269 3.4299 1.62717 3.23878C1.60165 3.03491 1.53784 2.8629 1.43574 2.72275C1.33364 2.58259 1.1805 2.47429 0.976301 2.39784C0.772107 2.32139 0.491343 2.28317 0.134003 2.28317H0V1.5569H6.25982C7.63813 1.5569 8.68463 1.86907 9.39931 2.4934C10.1267 3.11773 10.4905 3.95867 10.4905 5.01621C10.4905 5.6278 10.3629 6.17569 10.1076 6.65986C9.86513 7.14404 9.52693 7.55176 9.09302 7.88304C8.65911 8.21432 8.155 8.46915 7.58071 8.64753C7.00641 8.82591 6.38745 8.9151 5.72382 8.9151C5.20057 8.9151 4.7858 8.89599 4.47951 8.85776C4.18598 8.8068 3.99455 8.76857 3.90521 8.74309V12.6038C3.90521 13.0497 4.02007 13.4065 4.24979 13.674C4.47951 13.9289 4.93894 14.0563 5.6281 14.0563H6.03011V14.7825H0V14.0563H0.134003ZM5.24523 7.90215C6.15134 7.90215 6.85326 7.67918 7.35099 7.23323C7.84871 6.78728 8.09757 6.10561 8.09757 5.18822C8.09757 4.38551 7.88062 3.74206 7.4467 3.25789C7.01279 2.76097 6.37469 2.51251 5.53239 2.51251H5.4941C4.89428 2.51251 4.47951 2.61444 4.24979 2.81831C4.02007 3.02217 3.90521 3.40442 3.90521 3.96504V7.76837C3.96902 7.79385 4.11579 7.8257 4.3455 7.86393C4.57522 7.88941 4.87513 7.90215 5.24523 7.90215Z" fill="black"/>
<path d="M13.2766 3.81214C12.8809 3.81214 12.5427 3.67199 12.262 3.39167C11.9812 3.11136 11.8408 2.77371 11.8408 2.37873C11.8408 1.98374 11.9812 1.64609 12.262 1.36578C12.5427 1.08547 12.8809 0.945312 13.2766 0.945312C13.6722 0.945312 14.0104 1.08547 14.2911 1.36578C14.5719 1.64609 14.7123 1.98374 14.7123 2.37873C14.7123 2.77371 14.5719 3.11136 14.2911 3.39167C14.0104 3.67199 13.6722 3.81214 13.2766 3.81214ZM11.2665 14.0563C11.777 14.0563 12.128 13.9671 12.3194 13.7887C12.5108 13.6103 12.6065 13.3109 12.6065 12.8904V8.03594C12.6065 7.61547 12.5108 7.32242 12.3194 7.15678C12.128 6.99114 11.8344 6.90832 11.4388 6.90832H11.0177V6.27762C11.1708 6.23939 11.3814 6.18843 11.6494 6.12472C11.9302 6.06101 12.2173 5.99093 12.5108 5.91448C12.8044 5.83804 13.0851 5.76796 13.3531 5.70425C13.6211 5.6278 13.8317 5.56409 13.9849 5.51313H14.54V12.8904C14.54 13.3109 14.6357 13.6103 14.8272 13.7887C15.0186 13.9671 15.3695 14.0563 15.88 14.0563H16.014V14.7825H11.0751V14.0563H11.2665Z" fill="black"/>
<path d="M23.6444 8.20795C23.5551 7.59636 23.3062 7.13767 22.8978 6.83187C22.5022 6.51333 21.9981 6.35407 21.3855 6.35407C21.1047 6.35407 20.8048 6.40503 20.4858 6.50696C20.1667 6.59615 19.8732 6.77453 19.6052 7.0421C19.3372 7.29693 19.1138 7.66007 18.9352 8.1315C18.7565 8.59019 18.6672 9.19541 18.6672 9.94716C18.6672 10.3549 18.7118 10.7626 18.8012 11.1703C18.9033 11.5781 19.0564 11.9412 19.2606 12.2597C19.4776 12.5783 19.7519 12.8395 20.0838 13.0433C20.4156 13.2345 20.8176 13.33 21.2898 13.33C21.9279 13.33 22.4511 13.1325 22.8595 12.7375C23.2807 12.3426 23.5423 11.7883 23.6444 11.0748H25.8267C25.6225 12.3617 25.1312 13.3491 24.3527 14.0372C23.587 14.7125 22.566 15.0501 21.2898 15.0501C20.5113 15.0501 19.8221 14.9227 19.2223 14.6679C18.6353 14.4003 18.1375 14.0435 17.7291 13.5976C17.3208 13.1389 17.0081 12.5974 16.7911 11.9731C16.5869 11.3487 16.4848 10.6734 16.4848 9.94716C16.4848 9.20815 16.5869 8.51374 16.7911 7.86393C16.9953 7.21411 17.3016 6.65349 17.71 6.18206C18.1184 5.69788 18.6225 5.32201 19.2223 5.05444C19.8349 4.77412 20.5496 4.63397 21.3664 4.63397C21.9406 4.63397 22.483 4.71042 22.9935 4.86331C23.5168 5.00347 23.9762 5.22007 24.3718 5.51313C24.7802 5.80618 25.112 6.17569 25.3673 6.62164C25.6225 7.06759 25.7757 7.59636 25.8267 8.20795H23.6444Z" fill="black"/>
<path d="M27.2752 1.13643H29.4575V8.89599L33.401 4.90154H36.081L32.2907 8.53286L36.4448 14.7825H33.7839L30.7592 9.98538L29.4575 11.2468V14.7825H27.2752V1.13643Z" fill="black"/>
<path d="M38.5718 1.13643H40.7541L37.9209 14.7825H35.7386L38.5718 1.13643Z" fill="black"/>
<path d="M47.8985 8.97244C47.9113 8.90873 47.9177 8.85776 47.9177 8.81954C47.9177 8.76857 47.9177 8.71761 47.9177 8.66664V8.36085C47.9177 7.77474 47.7326 7.29693 47.3625 6.92743C46.9924 6.54519 46.4819 6.35407 45.8311 6.35407C45.0143 6.35407 44.3634 6.60252 43.8784 7.09944C43.3935 7.58362 43.0425 8.20795 42.8256 8.97244H47.8985ZM49.4874 11.7246C49.1428 12.8841 48.5621 13.7314 47.7454 14.2665C46.9286 14.7889 45.9204 15.0501 44.7208 15.0501C44.0954 15.0501 43.5147 14.9546 42.9787 14.7634C42.4555 14.5596 42.0024 14.2729 41.6196 13.9034C41.2367 13.5211 40.9368 13.0688 40.7198 12.5464C40.5029 12.0113 40.3944 11.4061 40.3944 10.7308C40.3944 9.96627 40.5156 9.2209 40.7581 8.49463C41.0006 7.76837 41.3515 7.11855 41.811 6.54519C42.2832 5.97182 42.8575 5.51313 43.5339 5.16911C44.223 4.81235 45.0079 4.63397 45.8885 4.63397C46.7691 4.63397 47.4837 4.78049 48.0325 5.07355C48.5813 5.3666 49.0088 5.73611 49.3151 6.18206C49.6214 6.62801 49.8256 7.11855 49.9277 7.65369C50.0426 8.18884 50.1 8.6985 50.1 9.18267C50.1 9.42476 50.0872 9.64773 50.0617 9.8516C50.0362 10.0555 50.0107 10.2402 49.9851 10.4059H42.615C42.6022 10.4696 42.5895 10.5269 42.5767 10.5779C42.5767 10.6288 42.5767 10.6798 42.5767 10.7308V11.0366C42.5767 11.7246 42.7554 12.2788 43.1127 12.6993C43.4828 13.1198 44.089 13.33 44.9313 13.33C45.5184 13.33 46.0225 13.1962 46.4436 12.9287C46.8648 12.6611 47.1519 12.2597 47.3051 11.7246H49.4874Z" fill="black"/>
</svg>
