<svg width="12" height="11" viewBox="0 0 12 11" fill="none" xmlns="http://www.w3.org/2000/svg">
<path d="M1.69922 2.7515C1.69922 2.37153 2.00725 2.0635 2.38722 2.0635H2.73122C3.11119 2.0635 3.41922 2.37153 3.41922 2.7515V8.2555C3.41922 8.63547 3.11119 8.9435 2.73122 8.9435H2.38722C2.00725 8.9435 1.69922 8.63547 1.69922 8.2555V2.7515Z" fill="white"/>
<path d="M5.13922 1.3755C5.13922 0.995528 5.44725 0.6875 5.82722 0.6875H6.17122C6.55119 0.6875 6.85922 0.995528 6.85922 1.3755V9.6315C6.85922 10.0115 6.55119 10.3195 6.17122 10.3195H5.82722C5.44725 10.3195 5.13922 10.0115 5.13922 9.6315V1.3755Z" fill="white"/>
<path d="M8.57922 3.0955C8.57922 2.71553 8.88725 2.4075 9.26722 2.4075H9.61122C9.99119 2.4075 10.2992 2.71553 10.2992 3.0955V7.9115C10.2992 8.29147 9.99119 8.5995 9.61122 8.5995H9.26722C8.88725 8.5995 8.57922 8.29147 8.57922 7.9115V3.0955Z" fill="white"/>
</svg>
