<svg width="14" height="14" viewBox="0 0 14 14" fill="none" xmlns="http://www.w3.org/2000/svg">
<path d="M9.785 7.41787C8.7 7.41787 7.79 8.19371 7.55667 9.22621C7.0025 8.98704 6.495 9.05121 6.11 9.22037C5.87083 8.18204 4.96083 7.41787 3.88167 7.41787C2.61583 7.41787 1.58333 8.46204 1.58333 9.75121C1.58333 11.0404 2.61583 12.0845 3.88167 12.0845C5.08333 12.0845 6.06333 11.1395 6.15667 9.93787C6.355 9.79787 6.87417 9.53537 7.51 9.94954C7.615 11.1454 8.58333 12.0845 9.785 12.0845C11.0508 12.0845 12.0833 11.0404 12.0833 9.75121C12.0833 8.46204 11.0508 7.41787 9.785 7.41787ZM3.88167 11.4195C2.97167 11.4195 2.2425 10.6729 2.2425 9.75121C2.2425 8.82954 2.9775 8.08287 3.88167 8.08287C4.79167 8.08287 5.52083 8.82954 5.52083 9.75121C5.52083 10.6729 4.79167 11.4195 3.88167 11.4195ZM9.785 11.4195C8.875 11.4195 8.14583 10.6729 8.14583 9.75121C8.14583 8.82954 8.875 8.08287 9.785 8.08287C10.695 8.08287 11.43 8.82954 11.43 9.75121C11.43 10.6729 10.6892 11.4195 9.785 11.4195ZM12.6667 5.95954H1V6.83454H12.6667V5.95954ZM8.8925 1.36871C8.76417 1.08287 8.4375 0.931207 8.12833 1.03037L6.83333 1.46204L5.5325 1.03037L5.50333 1.02454C5.19417 0.93704 4.8675 1.10037 4.75083 1.39787L3.33333 5.08454H10.3333L8.91 1.39787L8.8925 1.36871Z" fill="white"/>
</svg>
