<svg width="16" height="17" viewBox="0 0 16 17" fill="none" xmlns="http://www.w3.org/2000/svg">
<path d="M8.0013 3.16406C7.82449 3.16406 7.65492 3.2343 7.5299 3.35932C7.40487 3.48435 7.33464 3.65392 7.33464 3.83073C7.33464 4.00754 7.40487 4.17711 7.5299 4.30213C7.65492 4.42716 7.82449 4.4974 8.0013 4.4974C8.17811 4.4974 8.34768 4.42716 8.47271 4.30213C8.59773 4.17711 8.66797 4.00754 8.66797 3.83073C8.66797 3.65392 8.59773 3.48435 8.47271 3.35932C8.34768 3.2343 8.17811 3.16406 8.0013 3.16406ZM8.0013 7.83073C7.82449 7.83073 7.65492 7.90097 7.5299 8.02599C7.40487 8.15102 7.33464 8.32058 7.33464 8.4974C7.33464 8.67421 7.40487 8.84378 7.5299 8.9688C7.65492 9.09382 7.82449 9.16406 8.0013 9.16406C8.17811 9.16406 8.34768 9.09382 8.47271 8.9688C8.59773 8.84378 8.66797 8.67421 8.66797 8.4974C8.66797 8.32058 8.59773 8.15102 8.47271 8.02599C8.34768 7.90097 8.17811 7.83073 8.0013 7.83073ZM8.0013 12.4974C7.82449 12.4974 7.65492 12.5676 7.5299 12.6927C7.40487 12.8177 7.33464 12.9873 7.33464 13.1641C7.33464 13.3409 7.40487 13.5104 7.5299 13.6355C7.65492 13.7605 7.82449 13.8307 8.0013 13.8307C8.17811 13.8307 8.34768 13.7605 8.47271 13.6355C8.59773 13.5104 8.66797 13.3409 8.66797 13.1641C8.66797 12.9873 8.59773 12.8177 8.47271 12.6927C8.34768 12.5676 8.17811 12.4974 8.0013 12.4974Z" fill="white" stroke="white" stroke-linecap="round" stroke-linejoin="round"/>
</svg>
