<svg width="11" height="12" viewBox="0 0 11 12" fill="none" xmlns="http://www.w3.org/2000/svg">
<path fill-rule="evenodd" clip-rule="evenodd" d="M0.41797 2.79167C0.41797 2.52355 0.470779 2.25806 0.573382 2.01036C0.675986 1.76265 0.826374 1.53758 1.01596 1.34799C1.20555 1.1584 1.43062 1.00802 1.67832 0.905414C1.92603 0.80281 2.19152 0.750001 2.45964 0.750001C2.72775 0.750001 2.99324 0.80281 3.24095 0.905414C3.48865 1.00802 3.71373 1.1584 3.90331 1.34799C4.0929 1.53758 4.24329 1.76265 4.34589 2.01036C4.44849 2.25806 4.5013 2.52355 4.5013 2.79167V3.66667H6.83464V2.79167C6.83464 2.38786 6.95438 1.99313 7.17872 1.65738C7.40306 1.32163 7.72193 1.05994 8.09499 0.905414C8.46806 0.750885 8.87857 0.710453 9.27461 0.789231C9.67066 0.868009 10.0344 1.06246 10.32 1.34799C10.6055 1.63352 10.8 1.99731 10.8787 2.39336C10.9575 2.7894 10.9171 3.19991 10.7626 3.57298C10.608 3.94605 10.3463 4.26491 10.0106 4.48925C9.67484 4.71359 9.28011 4.83333 8.8763 4.83333H8.0013V7.16667H8.8763C9.28011 7.16667 9.67484 7.28641 10.0106 7.51075C10.3463 7.73509 10.608 8.05396 10.7626 8.42702C10.9171 8.80009 10.9575 9.2106 10.8787 9.60664C10.8 10.0027 10.6055 10.3665 10.32 10.652C10.0344 10.9375 9.67066 11.132 9.27461 11.2108C8.87857 11.2895 8.46806 11.2491 8.09499 11.0946C7.72193 10.9401 7.40306 10.6784 7.17872 10.3426C6.95438 10.0069 6.83464 9.61214 6.83464 9.20833V8.33333H4.5013V9.20833C4.5013 9.61214 4.38156 10.0069 4.15722 10.3426C3.93288 10.6784 3.61401 10.9401 3.24095 11.0946C2.86788 11.2491 2.45737 11.2895 2.06133 11.2108C1.66528 11.132 1.30149 10.9375 1.01596 10.652C0.730428 10.3665 0.535978 10.0027 0.4572 9.60664C0.378422 9.2106 0.418853 8.80009 0.573382 8.42702C0.727911 8.05396 0.989597 7.73509 1.32535 7.51075C1.6611 7.28641 2.05583 7.16667 2.45964 7.16667H3.33464V4.83333H2.45964C1.91815 4.83333 1.39885 4.61823 1.01596 4.23534C0.633073 3.85246 0.41797 3.33315 0.41797 2.79167ZM3.33464 3.66667V2.79167C3.33464 2.61861 3.28332 2.44944 3.18717 2.30554C3.09103 2.16165 2.95437 2.0495 2.79448 1.98327C2.6346 1.91705 2.45867 1.89972 2.28893 1.93348C2.1192 1.96724 1.96329 2.05058 1.84092 2.17295C1.71855 2.29532 1.63521 2.45123 1.60145 2.62096C1.56769 2.7907 1.58502 2.96663 1.65124 3.12652C1.71747 3.2864 1.82962 3.42306 1.97351 3.5192C2.11741 3.61535 2.28658 3.66667 2.45964 3.66667H3.33464ZM4.5013 4.83333V7.16667H6.83464V4.83333H4.5013ZM3.33464 8.33333H2.45964C2.28658 8.33333 2.11741 8.38465 1.97351 8.4808C1.82962 8.57694 1.71747 8.7136 1.65124 8.87349C1.58502 9.03337 1.56769 9.2093 1.60145 9.37904C1.63521 9.54877 1.71855 9.70468 1.84092 9.82705C1.96329 9.94942 2.1192 10.0328 2.28893 10.0665C2.45867 10.1003 2.6346 10.083 2.79448 10.0167C2.95437 9.9505 3.09103 9.83835 3.18717 9.69446C3.28332 9.55056 3.33464 9.38139 3.33464 9.20833V8.33333ZM8.0013 8.33333V9.20833C8.0013 9.38139 8.05262 9.55056 8.14877 9.69446C8.24491 9.83835 8.38157 9.9505 8.54146 10.0167C8.70134 10.083 8.87727 10.1003 9.04701 10.0665C9.21674 10.0328 9.37265 9.94942 9.49502 9.82705C9.61739 9.70468 9.70073 9.54877 9.73449 9.37904C9.76825 9.2093 9.75092 9.03337 9.6847 8.87349C9.61847 8.7136 9.50632 8.57694 9.36243 8.4808C9.21853 8.38465 9.04936 8.33333 8.8763 8.33333H8.0013ZM8.0013 3.66667H8.8763C9.04936 3.66667 9.21853 3.61535 9.36243 3.5192C9.50632 3.42306 9.61847 3.2864 9.6847 3.12652C9.75092 2.96663 9.76825 2.7907 9.73449 2.62096C9.70073 2.45123 9.61739 2.29532 9.49502 2.17295C9.37265 2.05058 9.21674 1.96724 9.04701 1.93348C8.87727 1.89972 8.70134 1.91705 8.54146 1.98327C8.38157 2.0495 8.24491 2.16165 8.14877 2.30554C8.05262 2.44944 8.0013 2.61861 8.0013 2.79167V3.66667Z" fill="white"/>
</svg>
