<svg width="10" height="10" viewBox="0 0 10 10" fill="none" xmlns="http://www.w3.org/2000/svg">
<path d="M0.699219 2.2515C0.699219 1.87153 1.00725 1.5635 1.38722 1.5635H1.73122C2.11119 1.5635 2.41922 1.87153 2.41922 2.2515V7.7555C2.41922 8.13547 2.11119 8.4435 1.73122 8.4435H1.38722C1.00725 8.4435 0.699219 8.13547 0.699219 7.7555V2.2515Z" fill="white"/>
<path d="M4.13922 0.8755C4.13922 0.495528 4.44725 0.1875 4.82722 0.1875H5.17122C5.55119 0.1875 5.85922 0.495528 5.85922 0.8755V9.1315C5.85922 9.51147 5.55119 9.8195 5.17122 9.8195H4.82722C4.44725 9.8195 4.13922 9.51147 4.13922 9.1315V0.8755Z" fill="white"/>
<path d="M7.57922 2.5955C7.57922 2.21553 7.88725 1.9075 8.26722 1.9075H8.61122C8.99119 1.9075 9.29922 2.21553 9.29922 2.5955V7.4115C9.29922 7.79147 8.99119 8.0995 8.61122 8.0995H8.26722C7.88725 8.0995 7.57922 7.79147 7.57922 7.4115V2.5955Z" fill="white"/>
</svg>
