<svg width="4" height="12" viewBox="0 0 4 12" fill="none" xmlns="http://www.w3.org/2000/svg">
<path d="M2.0013 0.664062C1.82449 0.664062 1.65492 0.7343 1.5299 0.859325C1.40487 0.984349 1.33464 1.15392 1.33464 1.33073C1.33464 1.50754 1.40487 1.67711 1.5299 1.80213C1.65492 1.92716 1.82449 1.9974 2.0013 1.9974C2.17811 1.9974 2.34768 1.92716 2.47271 1.80213C2.59773 1.67711 2.66797 1.50754 2.66797 1.33073C2.66797 1.15392 2.59773 0.984349 2.47271 0.859325C2.34768 0.734301 2.17811 0.664062 2.0013 0.664062ZM2.0013 5.33073C1.82449 5.33073 1.65492 5.40097 1.5299 5.52599C1.40487 5.65102 1.33464 5.82058 1.33464 5.9974C1.33464 6.17421 1.40487 6.34378 1.5299 6.4688C1.65492 6.59382 1.82449 6.66406 2.0013 6.66406C2.17811 6.66406 2.34768 6.59382 2.47271 6.4688C2.59773 6.34378 2.66797 6.17421 2.66797 5.9974C2.66797 5.82058 2.59773 5.65102 2.47271 5.52599C2.34768 5.40097 2.17811 5.33073 2.0013 5.33073ZM2.0013 9.9974C1.82449 9.9974 1.65492 10.0676 1.5299 10.1927C1.40487 10.3177 1.33464 10.4873 1.33464 10.6641C1.33464 10.8409 1.40487 11.0104 1.5299 11.1355C1.65492 11.2605 1.82449 11.3307 2.0013 11.3307C2.17811 11.3307 2.34768 11.2605 2.47271 11.1355C2.59773 11.0104 2.66797 10.8409 2.66797 10.6641C2.66797 10.4873 2.59773 10.3177 2.47271 10.1927C2.34768 10.0676 2.17811 9.9974 2.0013 9.9974Z" fill="white" stroke="white" stroke-linecap="round" stroke-linejoin="round"/>
</svg>
